<mxfile host="Electron" modified="2024-04-08T09:09:37.653Z" agent="Mozilla/5.0 (Windows NT 10.0; Win64; x64) AppleWebKit/537.36 (KHTML, like Gecko) draw.io/22.1.18 Chrome/120.0.6099.199 Electron/28.1.2 Safari/537.36" etag="u6stxZpruJMaK_JCU0Mf" version="22.1.18" type="device">
  <diagram name="第 1 页" id="cTCqoh07g6c_RtnE0g0w">
    <mxGraphModel dx="1727" dy="1170" grid="1" gridSize="10" guides="1" tooltips="1" connect="1" arrows="1" fold="1" page="1" pageScale="1" pageWidth="827" pageHeight="1169" math="0" shadow="0">
      <root>
        <mxCell id="0" />
        <mxCell id="1" parent="0" />
        <mxCell id="poiqEHHbp8W8bPDLzIMi-7" value="" style="edgeStyle=orthogonalEdgeStyle;rounded=0;orthogonalLoop=1;jettySize=auto;html=1;" edge="1" parent="1" source="poiqEHHbp8W8bPDLzIMi-1" target="poiqEHHbp8W8bPDLzIMi-2">
          <mxGeometry relative="1" as="geometry" />
        </mxCell>
        <mxCell id="poiqEHHbp8W8bPDLzIMi-23" value="" style="edgeStyle=orthogonalEdgeStyle;rounded=0;orthogonalLoop=1;jettySize=auto;html=1;" edge="1" parent="1" source="poiqEHHbp8W8bPDLzIMi-1" target="poiqEHHbp8W8bPDLzIMi-22">
          <mxGeometry relative="1" as="geometry" />
        </mxCell>
        <mxCell id="poiqEHHbp8W8bPDLzIMi-1" value="&lt;font style=&quot;font-size: 15px;&quot;&gt;传统网络编程&lt;/font&gt;" style="rounded=1;whiteSpace=wrap;html=1;fillColor=#1ba1e2;strokeColor=#006EAF;fontColor=#ffffff;" vertex="1" parent="1">
          <mxGeometry x="330" y="170" width="330" height="70" as="geometry" />
        </mxCell>
        <mxCell id="poiqEHHbp8W8bPDLzIMi-6" value="" style="edgeStyle=orthogonalEdgeStyle;rounded=0;orthogonalLoop=1;jettySize=auto;html=1;" edge="1" parent="1" source="poiqEHHbp8W8bPDLzIMi-2" target="poiqEHHbp8W8bPDLzIMi-3">
          <mxGeometry relative="1" as="geometry" />
        </mxCell>
        <mxCell id="poiqEHHbp8W8bPDLzIMi-25" value="" style="edgeStyle=orthogonalEdgeStyle;rounded=0;orthogonalLoop=1;jettySize=auto;html=1;" edge="1" parent="1" source="poiqEHHbp8W8bPDLzIMi-2" target="poiqEHHbp8W8bPDLzIMi-24">
          <mxGeometry relative="1" as="geometry" />
        </mxCell>
        <mxCell id="poiqEHHbp8W8bPDLzIMi-2" value="&lt;font style=&quot;font-size: 15px;&quot;&gt;多线程网络编程&lt;/font&gt;" style="rounded=1;whiteSpace=wrap;html=1;fillColor=#008a00;strokeColor=#005700;fontColor=#ffffff;" vertex="1" parent="1">
          <mxGeometry x="330" y="310" width="330" height="70" as="geometry" />
        </mxCell>
        <mxCell id="poiqEHHbp8W8bPDLzIMi-5" value="" style="edgeStyle=orthogonalEdgeStyle;rounded=0;orthogonalLoop=1;jettySize=auto;html=1;" edge="1" parent="1" source="poiqEHHbp8W8bPDLzIMi-3" target="poiqEHHbp8W8bPDLzIMi-4">
          <mxGeometry relative="1" as="geometry" />
        </mxCell>
        <mxCell id="poiqEHHbp8W8bPDLzIMi-27" value="" style="edgeStyle=orthogonalEdgeStyle;rounded=0;orthogonalLoop=1;jettySize=auto;html=1;" edge="1" parent="1" source="poiqEHHbp8W8bPDLzIMi-3" target="poiqEHHbp8W8bPDLzIMi-26">
          <mxGeometry relative="1" as="geometry" />
        </mxCell>
        <mxCell id="poiqEHHbp8W8bPDLzIMi-3" value="&lt;font style=&quot;font-size: 15px;&quot;&gt;NIO网络编程&lt;/font&gt;" style="rounded=1;whiteSpace=wrap;html=1;fillColor=#0050ef;strokeColor=#001DBC;fontColor=#ffffff;" vertex="1" parent="1">
          <mxGeometry x="330" y="460" width="330" height="70" as="geometry" />
        </mxCell>
        <mxCell id="poiqEHHbp8W8bPDLzIMi-29" value="" style="edgeStyle=orthogonalEdgeStyle;rounded=0;orthogonalLoop=1;jettySize=auto;html=1;" edge="1" parent="1" source="poiqEHHbp8W8bPDLzIMi-4" target="poiqEHHbp8W8bPDLzIMi-28">
          <mxGeometry relative="1" as="geometry" />
        </mxCell>
        <mxCell id="poiqEHHbp8W8bPDLzIMi-4" value="&lt;font style=&quot;font-size: 15px;&quot;&gt;Netty网络编程&lt;/font&gt;" style="rounded=1;whiteSpace=wrap;html=1;fillColor=#6a00ff;strokeColor=#3700CC;fontColor=#ffffff;" vertex="1" parent="1">
          <mxGeometry x="330" y="630" width="330" height="70" as="geometry" />
        </mxCell>
        <mxCell id="poiqEHHbp8W8bPDLzIMi-39" value="" style="edgeStyle=orthogonalEdgeStyle;rounded=0;orthogonalLoop=1;jettySize=auto;html=1;" edge="1" parent="1" source="poiqEHHbp8W8bPDLzIMi-22" target="poiqEHHbp8W8bPDLzIMi-38">
          <mxGeometry relative="1" as="geometry" />
        </mxCell>
        <mxCell id="poiqEHHbp8W8bPDLzIMi-22" value="阻塞编程" style="whiteSpace=wrap;html=1;fillColor=#1ba1e2;strokeColor=#006EAF;fontColor=#ffffff;rounded=1;" vertex="1" parent="1">
          <mxGeometry x="850" y="180" width="120" height="60" as="geometry" />
        </mxCell>
        <mxCell id="poiqEHHbp8W8bPDLzIMi-40" value="" style="edgeStyle=orthogonalEdgeStyle;rounded=0;orthogonalLoop=1;jettySize=auto;html=1;" edge="1" parent="1" source="poiqEHHbp8W8bPDLzIMi-24" target="poiqEHHbp8W8bPDLzIMi-38">
          <mxGeometry relative="1" as="geometry" />
        </mxCell>
        <mxCell id="poiqEHHbp8W8bPDLzIMi-24" value="池化技术" style="whiteSpace=wrap;html=1;fillColor=#008a00;strokeColor=#005700;fontColor=#ffffff;rounded=1;" vertex="1" parent="1">
          <mxGeometry x="850" y="320" width="120" height="60" as="geometry" />
        </mxCell>
        <mxCell id="poiqEHHbp8W8bPDLzIMi-33" value="" style="edgeStyle=orthogonalEdgeStyle;rounded=0;orthogonalLoop=1;jettySize=auto;html=1;" edge="1" parent="1" source="poiqEHHbp8W8bPDLzIMi-26" target="poiqEHHbp8W8bPDLzIMi-32">
          <mxGeometry relative="1" as="geometry" />
        </mxCell>
        <mxCell id="poiqEHHbp8W8bPDLzIMi-35" value="" style="edgeStyle=orthogonalEdgeStyle;rounded=0;orthogonalLoop=1;jettySize=auto;html=1;" edge="1" parent="1" source="poiqEHHbp8W8bPDLzIMi-26" target="poiqEHHbp8W8bPDLzIMi-34">
          <mxGeometry relative="1" as="geometry" />
        </mxCell>
        <mxCell id="poiqEHHbp8W8bPDLzIMi-37" value="" style="edgeStyle=orthogonalEdgeStyle;rounded=0;orthogonalLoop=1;jettySize=auto;html=1;" edge="1" parent="1" source="poiqEHHbp8W8bPDLzIMi-26" target="poiqEHHbp8W8bPDLzIMi-36">
          <mxGeometry relative="1" as="geometry" />
        </mxCell>
        <mxCell id="poiqEHHbp8W8bPDLzIMi-26" value="三大组件" style="whiteSpace=wrap;html=1;fillColor=#0050ef;strokeColor=#001DBC;fontColor=#ffffff;rounded=1;" vertex="1" parent="1">
          <mxGeometry x="850" y="470" width="120" height="60" as="geometry" />
        </mxCell>
        <mxCell id="poiqEHHbp8W8bPDLzIMi-49" value="" style="edgeStyle=orthogonalEdgeStyle;rounded=0;orthogonalLoop=1;jettySize=auto;html=1;" edge="1" parent="1" source="poiqEHHbp8W8bPDLzIMi-28" target="poiqEHHbp8W8bPDLzIMi-48">
          <mxGeometry relative="1" as="geometry" />
        </mxCell>
        <mxCell id="poiqEHHbp8W8bPDLzIMi-51" value="" style="edgeStyle=orthogonalEdgeStyle;rounded=0;orthogonalLoop=1;jettySize=auto;html=1;" edge="1" parent="1" source="poiqEHHbp8W8bPDLzIMi-28" target="poiqEHHbp8W8bPDLzIMi-50">
          <mxGeometry relative="1" as="geometry" />
        </mxCell>
        <mxCell id="poiqEHHbp8W8bPDLzIMi-53" value="" style="edgeStyle=orthogonalEdgeStyle;rounded=0;orthogonalLoop=1;jettySize=auto;html=1;" edge="1" parent="1" source="poiqEHHbp8W8bPDLzIMi-28" target="poiqEHHbp8W8bPDLzIMi-52">
          <mxGeometry relative="1" as="geometry" />
        </mxCell>
        <mxCell id="poiqEHHbp8W8bPDLzIMi-55" value="" style="edgeStyle=orthogonalEdgeStyle;rounded=0;orthogonalLoop=1;jettySize=auto;html=1;" edge="1" parent="1" source="poiqEHHbp8W8bPDLzIMi-28" target="poiqEHHbp8W8bPDLzIMi-54">
          <mxGeometry relative="1" as="geometry" />
        </mxCell>
        <mxCell id="poiqEHHbp8W8bPDLzIMi-58" value="" style="edgeStyle=orthogonalEdgeStyle;rounded=0;orthogonalLoop=1;jettySize=auto;html=1;" edge="1" parent="1" source="poiqEHHbp8W8bPDLzIMi-28" target="poiqEHHbp8W8bPDLzIMi-57">
          <mxGeometry relative="1" as="geometry" />
        </mxCell>
        <mxCell id="poiqEHHbp8W8bPDLzIMi-28" value="优化NIO" style="whiteSpace=wrap;html=1;fillColor=#6a00ff;strokeColor=#3700CC;fontColor=#ffffff;rounded=1;" vertex="1" parent="1">
          <mxGeometry x="850" y="640" width="120" height="60" as="geometry" />
        </mxCell>
        <mxCell id="poiqEHHbp8W8bPDLzIMi-42" value="" style="edgeStyle=orthogonalEdgeStyle;rounded=0;orthogonalLoop=1;jettySize=auto;html=1;" edge="1" parent="1" source="poiqEHHbp8W8bPDLzIMi-32" target="poiqEHHbp8W8bPDLzIMi-41">
          <mxGeometry relative="1" as="geometry" />
        </mxCell>
        <mxCell id="poiqEHHbp8W8bPDLzIMi-32" value="&lt;div style=&quot;background-color: rgb(30, 31, 34);&quot;&gt;&lt;pre style=&quot;font-family: &amp;quot;JetBrains Mono&amp;quot;, monospace;&quot;&gt;&lt;font style=&quot;font-size: 18px;&quot;&gt;Channel &lt;/font&gt;&lt;/pre&gt;&lt;/div&gt;" style="whiteSpace=wrap;html=1;fillColor=#0050ef;strokeColor=#001DBC;fontColor=#ffffff;rounded=1;" vertex="1" parent="1">
          <mxGeometry x="1050" y="380" width="120" height="60" as="geometry" />
        </mxCell>
        <mxCell id="poiqEHHbp8W8bPDLzIMi-46" value="" style="edgeStyle=orthogonalEdgeStyle;rounded=0;orthogonalLoop=1;jettySize=auto;html=1;" edge="1" parent="1" source="poiqEHHbp8W8bPDLzIMi-34" target="poiqEHHbp8W8bPDLzIMi-41">
          <mxGeometry relative="1" as="geometry" />
        </mxCell>
        <mxCell id="poiqEHHbp8W8bPDLzIMi-34" value="&lt;div style=&quot;background-color:#1e1f22;color:#bcbec4&quot;&gt;&lt;pre style=&quot;font-family:&#39;JetBrains Mono&#39;,monospace;font-size:12.0pt;&quot;&gt;Selector&lt;/pre&gt;&lt;/div&gt;" style="whiteSpace=wrap;html=1;fillColor=#0050ef;strokeColor=#001DBC;fontColor=#ffffff;rounded=1;" vertex="1" parent="1">
          <mxGeometry x="1050" y="570" width="120" height="60" as="geometry" />
        </mxCell>
        <mxCell id="poiqEHHbp8W8bPDLzIMi-43" value="" style="edgeStyle=orthogonalEdgeStyle;rounded=0;orthogonalLoop=1;jettySize=auto;html=1;" edge="1" parent="1" source="poiqEHHbp8W8bPDLzIMi-36" target="poiqEHHbp8W8bPDLzIMi-41">
          <mxGeometry relative="1" as="geometry" />
        </mxCell>
        <mxCell id="poiqEHHbp8W8bPDLzIMi-36" value="&lt;div style=&quot;background-color:#1e1f22;color:#bcbec4&quot;&gt;&lt;pre style=&quot;font-family:&#39;JetBrains Mono&#39;,monospace;font-size:12.0pt;&quot;&gt;Buffer&lt;/pre&gt;&lt;/div&gt;" style="whiteSpace=wrap;html=1;fillColor=#0050ef;strokeColor=#001DBC;fontColor=#ffffff;rounded=1;" vertex="1" parent="1">
          <mxGeometry x="1050" y="470" width="120" height="60" as="geometry" />
        </mxCell>
        <mxCell id="poiqEHHbp8W8bPDLzIMi-38" value="流" style="rhombus;whiteSpace=wrap;html=1;fillColor=#1ba1e2;strokeColor=#006EAF;fontColor=#ffffff;rounded=1;" vertex="1" parent="1">
          <mxGeometry x="1280" y="240" width="80" height="80" as="geometry" />
        </mxCell>
        <mxCell id="poiqEHHbp8W8bPDLzIMi-41" value="通道" style="rhombus;whiteSpace=wrap;html=1;fillColor=#0050ef;strokeColor=#001DBC;fontColor=#ffffff;rounded=1;" vertex="1" parent="1">
          <mxGeometry x="1280" y="460" width="80" height="80" as="geometry" />
        </mxCell>
        <mxCell id="poiqEHHbp8W8bPDLzIMi-48" value="ServerSocketChannel&amp;nbsp;" style="whiteSpace=wrap;html=1;fillColor=#6a00ff;strokeColor=#3700CC;fontColor=#ffffff;rounded=1;" vertex="1" parent="1">
          <mxGeometry x="1010" y="830" width="120" height="60" as="geometry" />
        </mxCell>
        <mxCell id="poiqEHHbp8W8bPDLzIMi-50" value="ChannelPipeline" style="whiteSpace=wrap;html=1;fillColor=#6a00ff;strokeColor=#3700CC;fontColor=#ffffff;rounded=1;" vertex="1" parent="1">
          <mxGeometry x="1180" y="830" width="120" height="60" as="geometry" />
        </mxCell>
        <mxCell id="poiqEHHbp8W8bPDLzIMi-52" value="Handler" style="whiteSpace=wrap;html=1;fillColor=#6a00ff;strokeColor=#3700CC;fontColor=#ffffff;rounded=1;" vertex="1" parent="1">
          <mxGeometry x="1340" y="830" width="120" height="60" as="geometry" />
        </mxCell>
        <mxCell id="poiqEHHbp8W8bPDLzIMi-54" value="NioEventLoop" style="whiteSpace=wrap;html=1;fillColor=#6a00ff;strokeColor=#3700CC;fontColor=#ffffff;rounded=1;" vertex="1" parent="1">
          <mxGeometry x="850" y="830" width="120" height="60" as="geometry" />
        </mxCell>
        <mxCell id="poiqEHHbp8W8bPDLzIMi-56" style="edgeStyle=orthogonalEdgeStyle;rounded=0;orthogonalLoop=1;jettySize=auto;html=1;exitX=0.5;exitY=1;exitDx=0;exitDy=0;" edge="1" parent="1" source="poiqEHHbp8W8bPDLzIMi-48" target="poiqEHHbp8W8bPDLzIMi-48">
          <mxGeometry relative="1" as="geometry" />
        </mxCell>
        <mxCell id="poiqEHHbp8W8bPDLzIMi-57" value="ByteBuf" style="whiteSpace=wrap;html=1;fillColor=#6a00ff;strokeColor=#3700CC;fontColor=#ffffff;rounded=1;" vertex="1" parent="1">
          <mxGeometry x="1490" y="830" width="120" height="60" as="geometry" />
        </mxCell>
      </root>
    </mxGraphModel>
  </diagram>
</mxfile>
